<svg width="64" height="64" viewBox="0 0 64 64" fill="none" xmlns="http://www.w3.org/2000/svg">
<g clip-path="url(#clip0_0_3)">
<path opacity="0.1" d="M32 64C49.6731 64 64 49.6731 64 32C64 14.3269 49.6731 0 32 0C14.3269 0 0 14.3269 0 32C0 49.6731 14.3269 64 32 64Z" fill="#00A3E9"/>
<path d="M24.2664 40.9965H39.7336C40.2299 40.9965 40.7119 40.8306 41.1031 40.5252C41.4942 40.2198 41.7721 39.7924 41.8925 39.311L44.3091 29.6446C44.3421 29.5124 44.3404 29.3739 44.304 29.2425C44.2676 29.1112 44.1978 28.9915 44.1015 28.8951C44.0051 28.7987 43.8854 28.729 43.754 28.6926C43.6227 28.6562 43.4842 28.6544 43.3519 28.6875L42.0083 29.0234C40.906 29.299 39.7477 29.2523 38.6712 28.8889C37.5946 28.5255 36.6451 27.8607 35.9353 26.9735L33.2326 23.5952C33.0847 23.4103 32.8971 23.2611 32.6838 23.1586C32.4704 23.056 32.2367 23.0028 32 23.0028C31.7632 23.0028 31.5295 23.056 31.3162 23.1586C31.1028 23.2611 30.9152 23.4103 30.7674 23.5952L28.0647 26.9735C27.3549 27.8607 26.4053 28.5255 25.3288 28.8889C24.2523 29.2523 23.094 29.299 21.9917 29.0234L20.6481 28.6875C20.5158 28.6544 20.3773 28.6562 20.246 28.6926C20.1146 28.729 19.9949 28.7987 19.8986 28.8951C19.8022 28.9915 19.7324 29.1112 19.696 29.2425C19.6596 29.3739 19.6579 29.5124 19.6909 29.6446L22.1075 39.311C22.2279 39.7924 22.5058 40.2198 22.8969 40.5252C23.2881 40.8306 23.7701 40.9965 24.2664 40.9965Z" fill="#00A3E9"/>
<path d="M19.6667 27C20.7712 27 21.6667 26.1046 21.6667 25C21.6667 23.8954 20.7712 23 19.6667 23C18.5621 23 17.6667 23.8954 17.6667 25C17.6667 26.1046 18.5621 27 19.6667 27Z" fill="#00A3E9"/>
<path d="M44.3333 27C45.4379 27 46.3333 26.1046 46.3333 25C46.3333 23.8954 45.4379 23 44.3333 23C43.2288 23 42.3333 23.8954 42.3333 25C42.3333 26.1046 43.2288 27 44.3333 27Z" fill="#00A3E9"/>
<path d="M32 21.3333C33.1046 21.3333 34 20.4379 34 19.3333C34 18.2288 33.1046 17.3333 32 17.3333C30.8954 17.3333 30 18.2288 30 19.3333C30 20.4379 30.8954 21.3333 32 21.3333Z" fill="#00A3E9"/>
<path d="M40 45.3333H24C23.6464 45.3333 23.3072 45.1929 23.0572 44.9428C22.8071 44.6928 22.6667 44.3536 22.6667 44C22.6667 43.6464 22.8071 43.3072 23.0572 43.0572C23.3072 42.8071 23.6464 42.6667 24 42.6667H40C40.3536 42.6667 40.6928 42.8071 40.9428 43.0572C41.1929 43.3072 41.3333 43.6464 41.3333 44C41.3333 44.3536 41.1929 44.6928 40.9428 44.9428C40.6928 45.1929 40.3536 45.3333 40 45.3333Z" fill="#00A3E9"/>
</g>
<defs>
<clipPath id="clip0_0_3">
<rect width="64" height="64" fill="white"/>
</clipPath>
</defs>
</svg>
