<svg width="64" height="64" viewBox="0 0 64 64" fill="none" xmlns="http://www.w3.org/2000/svg">
<circle opacity="0.1" cx="32" cy="32" r="32" fill="#00A3E9"/>
<path d="M38.0211 20C42.6196 20 45.3337 22.6461 45.3337 27.1757H39.6922V27.222C37.0739 27.222 34.9514 29.2913 34.9514 31.844C34.9514 34.3967 37.0739 36.4661 39.6922 36.4661H45.3337V36.882C45.3337 41.3539 42.6196 44 38.0211 44H25.9796C21.3811 44 18.667 41.3539 18.667 36.882V27.118C18.667 22.6461 21.3811 20 25.9796 20H38.0211ZM44.3381 29.1632C44.8879 29.1632 45.3337 29.5978 45.3337 30.1338V33.5079C45.3273 34.0414 44.8853 34.4723 44.3381 34.4786H39.7988C38.4734 34.496 37.3143 33.6112 37.0137 32.3524C36.8631 31.5711 37.0745 30.7648 37.5911 30.1496C38.1077 29.5345 38.8768 29.1734 39.6922 29.1632H44.3381ZM40.3322 30.7232H39.8937C39.6244 30.7201 39.3651 30.8222 39.1736 31.0067C38.9821 31.1912 38.8744 31.4428 38.8744 31.7053C38.8744 32.2561 39.3288 32.7043 39.8937 32.7106H40.3322C40.8951 32.7106 41.3514 32.2657 41.3514 31.7169C41.3514 31.1681 40.8951 30.7232 40.3322 30.7232ZM32.51 25.1883H24.984C24.4257 25.1882 23.9713 25.6261 23.9648 26.1704C23.9648 26.7212 24.4192 27.1694 24.984 27.1757H32.51C33.0729 27.1757 33.5292 26.7308 33.5292 26.182C33.5292 25.6332 33.0729 25.1883 32.51 25.1883Z" fill="#00A3E9"/>
</svg>
