<svg width="64" height="64" viewBox="0 0 64 64" fill="none" xmlns="http://www.w3.org/2000/svg">
<circle opacity="0.1" cx="32" cy="32" r="32" fill="#00A3E9"/>
<path fill-rule="evenodd" clip-rule="evenodd" d="M22.4225 18.8516H25.1184V20.5354C25.1184 22.3511 26.604 23.8366 28.4196 23.8366H35.5808C37.3965 23.8366 38.882 22.3511 38.882 20.5354V18.8516H41.5779C42.7878 18.8516 43.7778 19.847 43.7778 21.0636V45.788C43.7778 47.0046 42.7878 48 41.5779 48H22.4225C21.2126 48 20.2227 47.0046 20.2227 45.788V21.0636C20.2227 19.8471 21.2126 18.8516 22.4225 18.8516ZM28.4197 16C27.7773 16 27.2517 16.5255 27.2517 17.1679V20.5354C27.2517 21.1778 27.7773 21.7033 28.4197 21.7033H35.5808C36.2232 21.7033 36.7487 21.1778 36.7487 20.5354V17.1679C36.7487 16.5255 36.2232 16 35.5808 16H28.4197ZM27.5015 29.8357H36.4989C37.088 29.8357 37.5656 29.3581 37.5656 28.769C37.5656 28.1799 37.088 27.7024 36.4989 27.7024H27.5015C26.9124 27.7024 26.4348 28.1799 26.4348 28.769C26.4348 29.3581 26.9124 29.8357 27.5015 29.8357ZM27.5015 41.883H36.4989C37.088 41.883 37.5656 41.4054 37.5656 40.8164C37.5656 40.2273 37.088 39.7497 36.4989 39.7497H27.5015C26.9124 39.7497 26.4348 40.2273 26.4348 40.8164C26.4348 41.4054 26.9124 41.883 27.5015 41.883ZM27.5015 35.8594H36.4989C37.088 35.8594 37.5656 35.3818 37.5656 34.7927C37.5656 34.2036 37.088 33.7261 36.4989 33.7261H27.5015C26.9124 33.7261 26.4348 34.2036 26.4348 34.7927C26.4348 35.3818 26.9124 35.8594 27.5015 35.8594Z" fill="#00A3E9"/>
</svg>
