<svg width="64" height="64" viewBox="0 0 64 64" fill="none" xmlns="http://www.w3.org/2000/svg">
<circle opacity="0.1" cx="32" cy="32" r="32" fill="#00A3E9"/>
<path d="M31.9317 35.3861C36.5066 35.3861 40.413 36.1114 40.413 39.0137C40.413 41.9149 36.5317 42.6666 31.9317 42.6666C27.3568 42.6666 23.4505 41.9413 23.4505 39.0401C23.4505 36.1378 27.3317 35.3861 31.9317 35.3861ZM39.2464 33.6384C40.9955 33.606 42.8758 33.8462 43.5706 34.0167C45.0427 34.3061 46.0109 34.8969 46.412 35.7554C46.7511 36.4603 46.7511 37.2781 46.412 37.9817C45.7984 39.3134 43.8202 39.7409 43.0513 39.8514C42.8925 39.8754 42.7648 39.7373 42.7815 39.5776C43.1743 35.8875 40.0499 34.138 39.2417 33.7357C39.207 33.7177 39.1999 33.6901 39.2035 33.6732C39.2058 33.6612 39.2202 33.642 39.2464 33.6384ZM24.7538 33.6389C24.7801 33.6425 24.7932 33.6617 24.7956 33.6725C24.7992 33.6905 24.792 33.717 24.7586 33.7362C23.9491 34.1384 20.8248 35.888 21.2176 39.5769C21.2343 39.7378 21.1077 39.8747 20.9489 39.8519C20.1801 39.7414 18.2018 39.3139 17.5882 37.9822C17.2479 37.2774 17.2479 36.4608 17.5882 35.7559C17.9893 34.8974 18.9564 34.3066 20.4284 34.016C21.1244 33.8466 23.0036 33.6065 24.7538 33.6389ZM31.9317 21.3333C35.0465 21.3333 37.5441 23.8429 37.5441 26.9771C37.5441 30.11 35.0465 32.6221 31.9317 32.6221C28.8169 32.6221 26.3193 30.11 26.3193 26.9771C26.3193 23.8429 28.8169 21.3333 31.9317 21.3333ZM39.5509 22.2744C42.5594 22.2744 44.9221 25.1216 44.1174 28.2929C43.5742 30.4279 41.6079 31.8461 39.4172 31.7885C39.1975 31.7825 38.9814 31.762 38.7725 31.726C38.6209 31.6996 38.5444 31.5279 38.6304 31.4006C39.4661 30.1638 39.9425 28.676 39.9425 27.0789C39.9425 25.4122 39.4219 23.8583 38.5182 22.5843C38.4895 22.5446 38.468 22.4834 38.4967 22.4378C38.5206 22.4005 38.5647 22.3813 38.6065 22.3717C38.911 22.3093 39.2238 22.2744 39.5509 22.2744ZM24.4476 22.2743C24.7747 22.2743 25.0875 22.3091 25.3931 22.3716C25.4337 22.3812 25.4791 22.4016 25.503 22.4376C25.5304 22.4833 25.5101 22.5445 25.4815 22.5841C24.5777 23.8582 24.0572 25.412 24.0572 27.0788C24.0572 28.6758 24.5335 30.1636 25.3692 31.4005C25.4552 31.5278 25.3788 31.6995 25.2272 31.7259C25.0171 31.7631 24.8022 31.7823 24.5825 31.7883C22.3917 31.846 20.4254 30.4278 19.8822 28.2928C19.0764 25.1214 21.439 22.2743 24.4476 22.2743Z" fill="#00A3E9"/>
</svg>
