<svg width="64" height="64" viewBox="0 0 64 64" fill="none" xmlns="http://www.w3.org/2000/svg">
<circle opacity="0.1" cx="32" cy="32" r="32" fill="#00A3E9"/>
<path d="M20.2173 40.1715C20.2173 40.4512 20.3062 40.6755 20.8464 40.8438C20.8768 40.855 23.1389 41.6547 26.5907 42.144C26.5091 41.8345 26.4627 41.5158 26.463 41.192C26.4643 40.2141 26.8496 39.2934 27.5488 38.5987C27.592 38.5552 27.6368 38.5152 27.6825 38.4758L27.7085 38.4534C28.3862 37.8534 29.2579 37.5235 30.1635 37.5235C30.8099 37.5235 31.4441 37.6941 32 38.0115C32.5558 37.6941 33.1897 37.5235 33.8365 37.5235C34.7414 37.5235 35.6137 37.8534 36.2934 38.455L36.3165 38.4752C36.3632 38.5158 36.4099 38.5571 36.4518 38.5993C37.1504 39.2941 37.5357 40.2147 37.5373 41.1923C37.5379 41.5168 37.4909 41.8349 37.4099 42.1446C40.8617 41.6557 43.1232 40.856 43.1542 40.8445C43.6937 40.6777 43.7833 40.4521 43.7833 40.1725C43.8157 39.896 43.8349 39.6329 43.8441 39.3789C43.9942 35.8713 42.2509 34.5526 42.2317 34.5376C41.311 33.7158 40.1437 33.047 39.2342 32.592C38.4061 32.1795 37.7929 31.9427 37.7811 31.9382C36.368 31.4416 35.8637 30.9341 35.6893 30.5968L35.6185 30.3936C35.5984 30.3216 35.5805 30.2544 35.5641 30.1897L35.3923 29.2246L35.3878 29.1779C35.855 28.5811 36.2352 27.8953 36.4889 27.1936L36.5238 27.1395C36.9264 26.7373 37.1446 25.7187 37.1453 25.7088C37.4409 24.88 37.3312 24.5193 37.239 24.3744L37.2016 24.3149L37.223 24.2489C37.2531 24.159 37.9469 22.0349 36.9894 20.4157L36.9725 20.3731C36.9696 20.3584 36.6115 18.8624 34.856 18.2C34.1945 17.7977 33.0883 17.6 32.088 17.6C32.0582 17.6 32.0294 17.6003 32.0003 17.6009C31.9712 17.6003 31.9424 17.6 31.9129 17.6C30.9123 17.6 29.8061 17.7977 29.1446 18.1993C27.3891 18.8621 27.0313 20.3577 27.0278 20.3725L27.0112 20.415C26.0534 22.0339 26.7472 24.1584 26.7769 24.2483L26.7987 24.3142L26.7613 24.3737C26.6697 24.5187 26.5597 24.8793 26.8547 25.7081C26.8563 25.7181 27.0736 26.7366 27.4765 27.1389L27.5117 27.1929C27.7651 27.8947 28.1465 28.5801 28.6131 29.1773L28.6086 29.224L28.4368 30.1891C28.4201 30.2541 28.4029 30.3209 28.3827 30.3929L28.3117 30.5961C28.1376 30.9334 27.6333 31.4409 26.2208 31.9376C26.2089 31.9424 25.5952 32.1792 24.767 32.591C23.8576 33.0467 22.6909 33.7155 21.7693 34.5373C21.7497 34.5517 20.0067 35.8704 20.1555 39.3779C20.1651 39.6326 20.1846 39.895 20.2173 40.1715Z" fill="#00A3E9"/>
<path d="M35.6706 39.384C35.6344 39.3478 35.5951 39.3155 35.5573 39.2822C35.0664 38.8476 34.4511 38.6307 33.8363 38.6307C33.2539 38.6307 32.6719 38.8252 32.1957 39.2156C32.1285 39.2713 32.0629 39.3299 32.0002 39.3945C31.9371 39.3308 31.8719 39.2713 31.8043 39.2156C31.3282 38.8252 30.7461 38.6307 30.164 38.6307C29.549 38.6307 28.9339 38.8476 28.4431 39.2822C28.4053 39.3155 28.3659 39.3478 28.3295 39.384C27.3135 40.3948 27.2981 42.0329 28.4075 43.1424L31.4277 46.1628H31.428C31.5842 46.3209 31.7919 46.4 31.9992 46.4C32.2066 46.4 32.4143 46.3209 32.572 46.1638H32.5723L35.5925 43.1427C36.7016 42.0332 36.6866 40.3948 35.6706 39.384Z" fill="#00A3E9"/>
</svg>
